<svg xmlns="http://www.w3.org/2000/svg" xmlns:xlink="http://www.w3.org/1999/xlink" fill="none" version="1.1" width="153.0360107421875" height="40" viewBox="0 0 153.0360107421875 40"><g><rect x="0" y="0" width="149.046875" height="40" rx="0" fill="#000000" fill-opacity="0" style="mix-blend-mode:passthrough"/><g><path d="M31.248,11.96Q31.248,15.02,29.088,17.234Q26.928,19.448,22.788,20.42Q25.02,21.032,26.172,22.418Q27.324,23.804,27.324,25.604Q27.324,28.448,25.542,30.536Q23.76,32.624,20.34,33.758Q16.92,34.892,12.096,34.892Q10.296,34.892,9.216,34.784Q9.18,35.792,8.352,36.296Q7.524,36.8,6.228,36.8Q4.932,36.8,4.446,36.224Q3.96,35.648,4.032,34.532Q4.356,29.492,5.292,23.966Q6.228,18.44,7.668,13.292Q7.92,12.392,8.676,12.032Q9.432,11.672,10.656,11.672Q12.852,11.672,12.852,12.896Q12.852,13.4,12.636,14.048Q11.7,16.856,10.764,21.662Q9.828,26.468,9.432,30.824Q11.16,30.968,12.24,30.968Q17.28,30.968,19.638,29.51Q21.996,28.052,21.996,25.784Q21.996,24.2,20.646,23.12Q19.296,22.04,16.128,21.932Q15.408,21.896,15.12,21.572Q14.832,21.248,14.832,20.528Q14.832,19.484,15.264,18.836Q15.696,18.188,16.848,18.152Q19.404,18.08,21.474,17.396Q23.544,16.712,24.732,15.47Q25.92,14.228,25.92,12.572Q25.92,10.484,23.868,9.278Q21.816,8.072,17.568,8.072Q13.716,8.072,10.116,9.062Q6.516,10.052,3.996,11.564Q2.844,12.248,2.052,12.248Q1.404,12.248,1.062,11.798Q0.72,11.348,0.72,10.664Q0.72,9.764,1.098,9.116Q1.476,8.468,2.916,7.64Q5.94,5.912,10.008,4.94Q14.076,3.968,18.324,3.968Q24.84,3.968,28.044,6.164Q31.248,8.36,31.248,11.96ZM35.496,15.848Q33.984,15.848,33.228,15.146Q32.472,14.444,32.472,13.184Q32.472,11.924,33.462,11.078Q34.452,10.232,35.928,10.232Q37.26,10.232,38.088,10.88Q38.916,11.528,38.916,12.716Q38.916,14.156,37.98,15.002Q37.044,15.848,35.496,15.848ZM35.208,35.18Q32.868,35.18,31.806,33.524Q30.744,31.868,30.744,29.132Q30.744,27.512,31.158,24.974Q31.572,22.436,32.22,20.24Q32.544,19.088,33.084,18.656Q33.624,18.224,34.812,18.224Q36.648,18.224,36.648,19.448Q36.648,20.348,35.964,23.624Q35.1,27.584,35.1,28.988Q35.1,30.068,35.388,30.644Q35.676,31.22,36.36,31.22Q37.008,31.22,37.98,30.32Q38.952,29.42,40.572,27.476Q41.004,26.972,41.544,26.972Q42.012,26.972,42.282,27.404Q42.552,27.836,42.552,28.592Q42.552,30.032,41.868,30.824Q38.304,35.18,35.208,35.18ZM55.692,26.972Q56.16,26.972,56.43,27.404Q56.7,27.836,56.7,28.592Q56.7,30.032,56.016,30.824Q54.468,32.732,52.632,33.956Q50.796,35.18,48.42,35.18Q41.076,35.18,41.076,24.848Q41.076,23.264,41.184,21.644L39.78,21.644Q38.7,21.644,38.322,21.248Q37.944,20.852,37.944,19.988Q37.944,17.972,39.564,17.972L41.616,17.972Q42.228,14.012,43.488,10.736Q44.748,7.46,46.53,5.516Q48.312,3.572,50.364,3.572Q51.876,3.572,52.74,4.904Q53.604,6.236,53.604,8.252Q53.604,13.832,48.924,17.972L52.956,17.972Q53.532,17.972,53.784,18.224Q54.036,18.476,54.036,19.16Q54.036,21.644,49.968,21.644L45.576,21.644Q45.504,23.444,45.504,24.452Q45.504,28.196,46.386,29.708Q47.268,31.22,49.176,31.22Q50.724,31.22,51.912,30.284Q53.1,29.348,54.72,27.476Q55.152,26.972,55.692,26.972ZM49.392,7.028Q48.852,7.028,48.186,8.378Q47.52,9.728,46.926,12.122Q46.332,14.516,45.936,17.432Q48.06,15.596,49.122,13.31Q50.184,11.024,50.184,9.152Q50.184,7.028,49.392,7.028ZM69.84,26.972Q70.308,26.972,70.578,27.404Q70.848,27.836,70.848,28.592Q70.848,30.032,70.164,30.824Q68.832,32.444,66.402,33.812Q63.972,35.18,61.2,35.18Q57.42,35.18,55.332,33.128Q53.244,31.076,53.244,27.512Q53.244,25.028,54.288,22.886Q55.332,20.744,57.186,19.484Q59.04,18.224,61.38,18.224Q63.468,18.224,64.728,19.466Q65.988,20.708,65.988,22.832Q65.988,25.316,64.206,27.098Q62.424,28.88,58.176,29.924Q59.076,31.58,61.596,31.58Q63.216,31.58,65.286,30.446Q67.356,29.312,68.868,27.476Q69.3,26.972,69.84,26.972ZM60.768,21.752Q59.436,21.752,58.518,23.3Q57.6,24.848,57.6,27.044L57.6,27.116Q59.724,26.612,60.948,25.604Q62.172,24.596,62.172,23.264Q62.172,22.58,61.794,22.166Q61.416,21.752,60.768,21.752ZM113.652,19.448Q114.48,19.448,114.858,19.808Q115.236,20.168,115.236,20.744Q115.236,21.68,114.678,22.4Q114.12,23.12,112.932,23.156Q110.088,23.192,107.82,22.724Q105.3,28.088,101.754,31.634Q98.208,35.18,94.752,35.18Q91.584,35.18,90,31.814Q88.416,28.448,88.2,22.796Q86.04,29.06,83.322,32.12Q80.604,35.18,77.544,35.18Q74.088,35.18,72.324,30.878Q70.56,26.576,70.56,19.304Q70.56,14.012,71.496,7.676Q71.748,5.876,72.414,5.174Q73.08,4.472,74.52,4.472Q75.6,4.472,76.194,4.94Q76.788,5.408,76.788,6.668Q76.788,6.92,76.716,7.64Q75.636,15.02,75.636,20.204Q75.636,25.028,76.464,27.656Q77.292,30.284,78.696,30.284Q79.956,30.284,81.738,27.638Q83.52,24.992,85.284,19.79Q87.048,14.588,88.272,7.388Q88.56,5.732,89.334,5.102Q90.108,4.472,91.44,4.472Q92.556,4.472,93.078,4.958Q93.6,5.444,93.6,6.416Q93.6,6.992,93.528,7.316Q92.52,13.184,92.52,19.052Q92.52,23.048,92.79,25.424Q93.06,27.8,93.834,29.042Q94.608,30.284,96.084,30.284Q97.812,30.284,99.936,27.674Q102.06,25.064,103.824,21.176Q101.628,19.808,100.512,17.63Q99.396,15.452,99.396,12.608Q99.396,9.764,100.278,7.802Q101.16,5.84,102.69,4.868Q104.22,3.896,106.092,3.896Q108.396,3.896,109.746,5.552Q111.096,7.208,111.096,10.088Q111.096,14.156,109.332,19.124Q111.168,19.448,113.652,19.448ZM103.032,12.356Q103.032,15.884,105.3,17.576Q106.704,13.544,106.704,10.916Q106.704,9.404,106.308,8.702Q105.912,8,105.228,8Q104.256,8,103.644,9.134Q103.032,10.268,103.032,12.356ZM116.46,15.848Q114.948,15.848,114.192,15.146Q113.436,14.444,113.436,13.184Q113.436,11.924,114.426,11.078Q115.416,10.232,116.892,10.232Q118.224,10.232,119.052,10.88Q119.88,11.528,119.88,12.716Q119.88,14.156,118.944,15.002Q118.008,15.848,116.46,15.848ZM116.172,35.18Q113.832,35.18,112.77,33.524Q111.708,31.868,111.708,29.132Q111.708,27.512,112.122,24.974Q112.536,22.436,113.184,20.24Q113.508,19.088,114.048,18.656Q114.588,18.224,115.776,18.224Q117.612,18.224,117.612,19.448Q117.612,20.348,116.928,23.624Q116.064,27.584,116.064,28.988Q116.064,30.068,116.352,30.644Q116.64,31.22,117.324,31.22Q117.972,31.22,118.944,30.32Q119.916,29.42,121.536,27.476Q121.968,26.972,122.508,26.972Q122.976,26.972,123.246,27.404Q123.516,27.836,123.516,28.592Q123.516,30.032,122.832,30.824Q119.268,35.18,116.172,35.18ZM127.296,35.972Q125.424,35.972,124.434,35.108Q123.444,34.244,123.444,33.164Q123.444,32.228,124.128,31.544Q124.812,30.86,126.144,30.86Q126.612,30.86,127.242,30.95Q127.872,31.04,128.196,31.076Q128.16,30.14,127.782,29.312Q127.404,28.484,126.828,27.71Q126.252,26.936,125.748,26.36Q124.632,28.484,123.534,29.888Q122.436,31.292,121.14,32.552Q120.492,33.2,119.772,33.2Q119.196,33.2,118.836,32.786Q118.476,32.372,118.476,31.76Q118.476,31.04,118.98,30.428L119.448,29.852Q121.428,27.404,122.436,25.82Q123.048,24.776,123.876,23.03Q124.704,21.284,125.496,19.412Q126.18,17.828,128.34,17.828Q129.348,17.828,129.744,18.008Q130.14,18.188,130.14,18.584Q130.14,18.8,129.996,19.268Q129.852,19.736,129.6,20.204Q128.952,21.5,128.952,22.4Q128.952,22.94,129.33,23.588Q129.708,24.236,130.5,25.208Q131.652,26.72,132.246,27.782Q132.84,28.844,132.84,30.104Q132.84,30.464,132.768,31.112Q134.532,30.428,136.908,27.476Q137.34,26.972,137.88,26.972Q138.348,26.972,138.618,27.404Q138.888,27.836,138.888,28.592Q138.888,29.96,138.204,30.824Q136.404,33.056,134.766,33.866Q133.128,34.676,130.716,34.748Q129.276,35.972,127.296,35.972ZM152.028,26.972Q152.496,26.972,152.766,27.404Q153.036,27.836,153.036,28.592Q153.036,30.032,152.352,30.824Q151.02,32.444,148.59,33.812Q146.16,35.18,143.388,35.18Q139.608,35.18,137.52,33.128Q135.432,31.076,135.432,27.512Q135.432,25.028,136.476,22.886Q137.52,20.744,139.374,19.484Q141.228,18.224,143.568,18.224Q145.656,18.224,146.916,19.466Q148.176,20.708,148.176,22.832Q148.176,25.316,146.394,27.098Q144.612,28.88,140.364,29.924Q141.264,31.58,143.784,31.58Q145.404,31.58,147.474,30.446Q149.544,29.312,151.056,27.476Q151.488,26.972,152.028,26.972ZM142.956,21.752Q141.624,21.752,140.706,23.3Q139.788,24.848,139.788,27.044L139.788,27.116Q141.912,26.612,143.136,25.604Q144.36,24.596,144.36,23.264Q144.36,22.58,143.982,22.166Q143.604,21.752,142.956,21.752Z" fill="#000000" fill-opacity="1" style="mix-blend-mode:passthrough"/></g></g></svg>