<svg xmlns="http://www.w3.org/2000/svg" xmlns:xlink="http://www.w3.org/1999/xlink" fill="none" version="1.1" width="26.25" height="36" viewBox="0 0 26.25 36"><defs><clipPath id="master_svg0_1_4718"><rect x="0" y="3" width="26.25" height="30" rx="0"/></clipPath></defs><g><rect x="0" y="0" width="26.25" height="36" rx="0" fill="#000000" fill-opacity="0" style="mix-blend-mode:passthrough"/><g clip-path="url(#master_svg0_1_4718)"><g transform="matrix(1,0,0,-1,0,67.28905868530273)"><g><path d="M13.125031179141999,63.64452934265137Q12.322631179141998,63.64452934265137,11.806731179141998,63.11722934265137Q11.290931179141998,62.58982934265137,11.290931179141998,61.76952934265137L11.290931179141998,60.65622934265137Q8.081321179141998,59.953129342651366,6.075311179141998,57.43362934265137Q4.012001179141999,54.91402934265137,3.9546811791419985,51.45702934265137L3.9546811791419985,50.34372934265137Q3.8973711791419983,46.12502934265137,1.2035911791419984,42.902339342651366L0.7450761791419983,42.374999342651364Q-0.000011820858001720946,41.496089342651366,0.4585031791419983,40.38280934265137Q0.9743331791419982,39.32811934265137,2.120621179141998,39.26952934265137L24.129331179142,39.26952934265137Q25.275631179142,39.32811934265137,25.791431179142,40.38280934265137Q26.250031179142,41.496089342651366,25.504931179141998,42.374999342651364L25.103731179142,42.902339342651366Q22.352631179141998,46.06642934265137,22.295331179142,50.34372934265137L22.295331179142,51.45702934265137Q22.237931179142,54.91402934265137,20.174631179141997,57.43362934265137Q18.168631179141997,59.953129342651366,14.959031179141999,60.65622934265137L14.959031179141999,61.76952934265137Q14.959031179141999,62.58982934265137,14.443231179141998,63.11722934265137Q13.927431179141998,63.64452934265137,13.125031179141999,63.64452934265137ZM15.704131179141998,34.75780934265137Q16.793131179141998,35.871089342651366,16.793131179141998,37.39452934265137L13.125031179141999,37.39452934265137L9.456871179141999,37.39452934265137Q9.456871179141999,35.871089342651366,10.545831179141999,34.75780934265137Q11.634831179142,33.64452934265137,13.125031179141999,33.64452934265137Q14.615131179141999,33.64452934265137,15.704131179141998,34.75780934265137Z" fill="#000000" fill-opacity="1" style="mix-blend-mode:passthrough"/></g></g></g></g></svg>