<svg xmlns="http://www.w3.org/2000/svg" xmlns:xlink="http://www.w3.org/1999/xlink" fill="none" version="1.1" width="21" height="32" viewBox="0 0 21 32"><defs><clipPath id="master_svg0_1_06389"><rect x="0" y="4" width="21" height="24" rx="0"/></clipPath></defs><g><rect x="0" y="0" width="21" height="32" rx="0" fill="#000000" fill-opacity="0" style="mix-blend-mode:passthrough"/><g clip-path="url(#master_svg0_1_06389)"><g transform="matrix(1,0,0,-1,0,57.03125)"><g><path d="M10.5,47.265625Q9.79688,47.312525,9.75,48.015625L9.75,48.765625Q9.79688,50.359425,10.8281,51.437525Q11.9062,52.468725,13.5,52.515625L14.25,52.515625Q14.9531,52.468725,15,51.765625L15,51.015625Q14.9531,49.421825,13.9219,48.343725Q12.8438,47.312525,11.25,47.265625L10.5,47.265625ZM0,39.015625Q0,41.828125,1.26562,44.125025Q2.57812,46.375025,5.25,46.515625Q6.23438,46.515625,7.26562,46.234425Q8.29688,45.953125,9.14062,45.625025Q10.5,45.109425,11.8594,45.625025Q12.7031,45.953125,13.7344,46.234425Q14.7656,46.515625,15.75,46.515625Q18.4219,46.375025,19.7344,44.125025Q21,41.828125,21,39.015625Q20.9062,34.421875,18.6562,31.515625Q16.4531,28.609375,13.5,28.515625Q12.8906,28.515625,12.2344,28.703125Q11.5781,28.890625,11.1094,29.03125Q10.5,29.265625,9.9375,29.03125Q9.42188,28.890625,8.76562,28.703125Q8.10938,28.515625,7.5,28.515625Q4.59375,28.609375,2.34375,31.515625Q0.09375,34.421875,0,39.015625Z" fill="#4B5563" fill-opacity="1" style="mix-blend-mode:passthrough"/></g></g></g></g></svg>