<svg xmlns="http://www.w3.org/2000/svg" xmlns:xlink="http://www.w3.org/1999/xlink" fill="none" version="1.1" width="30" height="36" viewBox="0 0 30 36"><defs><clipPath id="master_svg0_1_4713"><rect x="0" y="3" width="30" height="30" rx="0"/></clipPath></defs><g><rect x="0" y="0" width="30" height="36" rx="0" fill="#000000" fill-opacity="0" style="mix-blend-mode:passthrough"/><g clip-path="url(#master_svg0_1_4713)"><g transform="matrix(1,0,0,-1,0,61.66403579711914)"><g><path d="M9.190671194438934,55.792917898559566Q10.057721194438935,54.855417898559566,9.306271194438935,53.80071789855957L5.144421194438935,49.11321789855957Q4.739801194438934,48.64451789855957,4.161771194438934,48.64451789855957Q3.525931194438934,48.64451789855957,3.121301194438934,49.05471789855957L0.8091651944389343,51.39841789855957Q-0.00008280556106565751,52.39451789855957,0.8091651944389343,53.39061789855957Q1.7918211944389344,54.21091789855957,2.7744811944389345,53.39061789855957L4.046161194438934,52.10151789855957L7.225351194438934,55.67581789855957Q8.150211194438935,56.55471789855957,9.190671194438934,55.792917898559566ZM9.190671194438934,46.41791789855957Q10.057721194438935,45.48041789855957,9.306271194438935,44.42581789855957L5.144421194438935,39.73826789855957Q4.739801194438934,39.26951789855957,4.161771194438934,39.26951789855957Q3.525931194438934,39.26951789855957,3.121301194438934,39.67967789855957L0.8091651944389343,42.02341789855957Q-0.00008280556106565751,43.01951789855957,0.8091651944389343,44.01561789855957Q1.7918211944389344,44.83591789855957,2.7744811944389345,44.01561789855957L4.046161194438934,42.72651789855957L7.225351194438934,46.30081789855957Q8.150211194438935,47.17971789855957,9.190671194438934,46.41791789855957ZM13.352541194438935,52.39451789855957Q13.352541194438935,53.21481789855957,13.872741194438934,53.74221789855957Q14.392941194438935,54.26951789855957,15.202241194438935,54.26951789855957L28.150241194438934,54.26951789855957Q28.959441194438934,54.26951789855957,29.479641194438933,53.74221789855957Q29.999941194438936,53.21481789855957,29.999941194438936,52.39451789855957Q29.999941194438936,51.57421789855957,29.479641194438933,51.04681789855957Q28.959441194438934,50.51951789855957,28.150241194438934,50.51951789855957L15.202241194438935,50.51951789855957Q14.392941194438935,50.51951789855957,13.872741194438934,51.04681789855957Q13.352541194438935,51.57421789855957,13.352541194438935,52.39451789855957ZM13.352541194438935,43.01951789855957Q13.352541194438935,43.83981789855957,13.872741194438934,44.36721789855957Q14.392941194438935,44.89451789855957,15.202241194438935,44.89451789855957L28.150241194438934,44.89451789855957Q28.959441194438934,44.89451789855957,29.479641194438933,44.36721789855957Q29.999941194438936,43.83981789855957,29.999941194438936,43.01951789855957Q29.999941194438936,42.19921789855957,29.479641194438933,41.67181789855957Q28.959441194438934,41.14451789855957,28.150241194438934,41.14451789855957L15.202241194438935,41.14451789855957Q14.392941194438935,41.14451789855957,13.872741194438934,41.67181789855957Q13.352541194438935,42.19921789855957,13.352541194438935,43.01951789855957ZM9.653091194438934,33.64451789855957Q9.653091194438934,34.46482789855957,10.173331194438934,34.99217789855957Q10.693541194438934,35.51951789855957,11.502841194438934,35.51951789855957L28.150241194438934,35.51951789855957Q28.959441194438934,35.51951789855957,29.479641194438933,34.99217789855957Q29.999941194438936,34.46482789855957,29.999941194438936,33.64451789855957Q29.999941194438936,32.82420789855957,29.479641194438933,32.29685789855957Q28.959441194438934,31.76951789855957,28.150241194438934,31.76951789855957L11.502841194438934,31.76951789855957Q10.693541194438934,31.76951789855957,10.173331194438934,32.29685789855957Q9.653091194438934,32.82420789855957,9.653091194438934,33.64451789855957ZM3.1791111944389345,36.45701789855957Q4.739801194438934,36.39842789855957,5.606851194438934,35.05076789855957Q6.300491194438934,33.64451789855957,5.606851194438934,32.23826789855957Q4.739801194438934,30.89061169855957,3.1791111944389345,30.83201789855957Q1.6184111944389343,30.89061169855957,0.7513621944389344,32.23826789855957Q0.057720194438934336,33.64451789855957,0.7513621944389344,35.05076789855957Q1.6184111944389343,36.39842789855957,3.1791111944389345,36.45701789855957Z" fill="#000000" fill-opacity="1" style="mix-blend-mode:passthrough"/></g></g></g></g></svg>