<svg xmlns="http://www.w3.org/2000/svg" xmlns:xlink="http://www.w3.org/1999/xlink" fill="none" version="1.1" width="18" height="32" viewBox="0 0 18 32"><defs><clipPath id="master_svg0_1_06339"><rect x="0" y="4" width="18" height="24" rx="0"/></clipPath></defs><g><rect x="0" y="0" width="18" height="32" rx="0" fill="#000000" fill-opacity="0" style="mix-blend-mode:passthrough"/><g clip-path="url(#master_svg0_1_06339)"><g transform="matrix(1,0,0,-1,0,55.53125)"><g><path d="M9,27.765625Q6.46875,27.8125,4.45312,29.171875Q2.4375,30.578125,1.21875,32.781245Q0.046875,34.984375,0,37.515625Q0,40.234425,0.984375,43.140625Q2.01562,46.093725,3.98438,48.109425Q6,50.171825,9,50.265625Q12,50.171825,14.0156,48.109425Q15.9844,46.093725,17.0156,43.140625Q18,40.234425,18,37.515625Q17.9531,34.984375,16.7812,32.781245Q15.5625,30.578125,13.5469,29.171875Q11.5312,27.8125,9,27.765625ZM7.26562,44.734425Q7.73438,45.250025,7.3125,45.812525Q6.79688,46.234425,6.23438,45.859425Q4.59375,44.218725,3.79688,41.875025Q3,39.578125,3,37.515625Q3.04688,36.812505,3.75,36.765625Q4.45312,36.812505,4.5,37.515625Q4.5,39.296825,5.20312,41.406225Q5.95312,43.468725,7.26562,44.734425Z" fill="#4B5563" fill-opacity="1" style="mix-blend-mode:passthrough"/></g></g></g></g></svg>