<svg xmlns="http://www.w3.org/2000/svg" xmlns:xlink="http://www.w3.org/1999/xlink" fill="none" version="1.1" width="15.75" height="21" viewBox="0 0 15.75 21"><defs><clipPath id="master_svg0_29_3937"><rect x="0" y="3" width="15.75" height="14" rx="0"/></clipPath></defs><g><rect x="0" y="0" width="15.75" height="21" rx="0" fill="#000000" fill-opacity="0" style="mix-blend-mode:passthrough"/><g clip-path="url(#master_svg0_29_3937)"><g transform="matrix(1,0,0,-1,0,32.6874942779541)"><g><path d="M7.861551205508709,27.28124713897705Q6.533231205508709,27.25394713897705,5.448891205508709,26.73434713897705Q4.364561205508709,26.24218713897705,3.524201205508709,25.42186713897705Q2.738051205508709,24.683587138977053,2.195881205508709,23.890627138977052Q1.680821205508709,23.097657138977052,1.3826312055087089,22.46874713897705Q1.680821205508709,21.83983713897705,2.195881205508709,21.04686713897705Q2.738051205508709,20.253907138977052,3.524201205508709,19.515627138977052Q4.364561205508709,18.69530713897705,5.448891205508709,18.203127138977052Q6.533231205508709,17.68358713897705,7.861551205508709,17.65624713897705Q9.18986120550871,17.68358713897705,10.27417120550871,18.203127138977052Q11.358571205508708,18.69530713897705,12.19887120550871,19.515627138977052Q12.985071205508708,20.253907138977052,13.52717120550871,21.04686713897705Q14.042271205508708,21.83983713897705,14.34047120550871,22.46874713897705Q14.042271205508708,23.097657138977052,13.52717120550871,23.890627138977052Q12.985071205508708,24.683587138977053,12.19887120550871,25.42186713897705Q11.358571205508708,26.24218713897705,10.27417120550871,26.73434713897705Q9.18986120550871,27.25394713897705,7.861551205508709,27.28124713897705ZM2.629621205508709,26.37894713897705Q3.605521205508709,27.30854713897705,4.906731205508709,27.937547138977052Q6.207931205508709,28.56644713897705,7.861551205508709,28.59374713897705Q9.51516120550871,28.56644713897705,10.816371205508709,27.937547138977052Q12.117571205508709,27.30854713897705,13.09347120550871,26.37894713897705Q14.042271205508708,25.47655713897705,14.665771205508708,24.51952713897705Q15.289271205508708,23.56249713897705,15.614571205508708,22.796877138977052Q15.750071205508709,22.46874713897705,15.614571205508708,22.140627138977052Q15.289271205508708,21.37499713897705,14.665771205508708,20.41796713897705Q14.042271205508708,19.46093713897705,13.09347120550871,18.55858713897705Q12.117571205508709,17.628907138977052,10.816371205508709,16.99999713897705Q9.51516120550871,16.37109093897705,7.861551205508709,16.34374713897705Q6.207931205508709,16.37109093897705,4.906731205508709,16.99999713897705Q3.605521205508709,17.628907138977052,2.629621205508709,18.55858713897705Q1.680821205508709,19.46093713897705,1.057329205508709,20.41796713897705Q0.43383520550870897,21.37499713897705,0.13564230550870895,22.140627138977052Q0.00010010550870895307,22.46874713897705,0.13564230550870895,22.796877138977052Q0.43383520550870897,23.56249713897705,1.057329205508709,24.51952713897705Q1.680821205508709,25.47655713897705,2.629621205508709,26.37894713897705ZM7.861551205508709,20.28124713897705Q8.78323120550871,20.30858713897705,9.40673120550871,20.910157138977052Q10.00311120550871,21.53905713897705,10.03022120550871,22.46874713897705Q10.00311120550871,23.39843713897705,9.40673120550871,24.02733713897705Q8.78323120550871,24.62890713897705,7.861551205508709,24.65624713897705Q7.834441205508709,24.65624713897705,7.834441205508709,24.65624713897705L7.807331205508709,24.65624713897705Q7.861551205508709,24.43749713897705,7.861551205508709,24.21874713897705Q7.834441205508709,23.48046713897705,7.3464812055087085,22.98827713897705Q6.858531205508709,22.49608713897705,6.126601205508709,22.46874713897705Q5.909741205508709,22.46874713897705,5.692871205508709,22.52343713897705Q5.692871205508709,22.49608713897705,5.692871205508709,22.49608713897705L5.692871205508709,22.46874713897705Q5.719981205508709,21.53905713897705,6.316361205508709,20.910157138977052Q6.939861205508709,20.30858713897705,7.861551205508709,20.28124713897705ZM7.861551205508709,25.96874713897705Q8.81034120550871,25.96874713897705,9.596491205508709,25.50390713897705Q10.382671205508709,25.03905713897705,10.870571205508709,24.21874713897705Q11.33147120550871,23.39843713897705,11.33147120550871,22.46874713897705Q11.33147120550871,21.53905713897705,10.870571205508709,20.71874713897705Q10.382671205508709,19.89843713897705,9.596491205508709,19.43358713897705Q8.81034120550871,18.96874713897705,7.861551205508709,18.96874713897705Q6.912751205508709,18.96874713897705,6.126601205508709,19.43358713897705Q5.340461205508709,19.89843713897705,4.8525112055087085,20.71874713897705Q4.391671205508709,21.53905713897705,4.391671205508709,22.46874713897705Q4.391671205508709,23.39843713897705,4.8525112055087085,24.21874713897705Q5.340461205508709,25.03905713897705,6.126601205508709,25.50390713897705Q6.912751205508709,25.96874713897705,7.861551205508709,25.96874713897705Z" fill="#9CA3AF" fill-opacity="1" style="mix-blend-mode:passthrough"/></g></g></g></g></svg>