<svg xmlns="http://www.w3.org/2000/svg" xmlns:xlink="http://www.w3.org/1999/xlink" fill="none" version="1.1" width="30" height="32" viewBox="0 0 30 32"><defs><clipPath id="master_svg0_1_06379"><rect x="0" y="4" width="30" height="24" rx="0"/></clipPath></defs><g><rect x="0" y="0" width="30" height="32" rx="0" fill="#000000" fill-opacity="0" style="mix-blend-mode:passthrough"/><g clip-path="url(#master_svg0_1_06379)"><g transform="matrix(1,0,0,-1,0,54.03125)"><g><path d="M4.5,46.515625Q4.5,47.171825,4.92188,47.593725Q5.34375,48.015625,6,48.015625L7.5,48.015625Q8.15625,48.015625,8.57812,47.593725Q9,47.171825,9,46.515625L9,39.015625L9,36.015625L9,28.515625Q9,27.859375,8.57812,27.4375Q8.15625,27.015625,7.5,27.015625L6,27.015625Q5.34375,27.015625,4.92188,27.4375Q4.5,27.859375,4.5,28.515625L4.5,31.515625L3,31.515625Q2.34375,31.515625,1.92188,31.937505Q1.5,32.359375,1.5,33.015625L1.5,36.015625Q0.84375,36.015625,0.421875,36.437505Q0,36.859375,0,37.515625Q0,38.171825,0.421875,38.593725Q0.84375,39.015625,1.5,39.015625L1.5,42.015625Q1.5,42.671825,1.92188,43.093725Q2.34375,43.515625,3,43.515625L4.5,43.515625L4.5,46.515625ZM25.5,46.515625L25.5,43.515625L25.5,46.515625L25.5,43.515625L27,43.515625Q27.6562,43.515625,28.0781,43.093725Q28.5,42.671825,28.5,42.015625L28.5,39.015625Q29.1562,39.015625,29.5781,38.593725Q30,38.171825,30,37.515625Q30,36.859375,29.5781,36.437505Q29.1562,36.015625,28.5,36.015625L28.5,33.015625Q28.5,32.359375,28.0781,31.937505Q27.6562,31.515625,27,31.515625L25.5,31.515625L25.5,28.515625Q25.5,27.859375,25.0781,27.4375Q24.6562,27.015625,24,27.015625L22.5,27.015625Q21.8438,27.015625,21.4219,27.4375Q21,27.859375,21,28.515625L21,36.015625L21,39.015625L21,46.515625Q21,47.171825,21.4219,47.593725Q21.8438,48.015625,22.5,48.015625L24,48.015625Q24.6562,48.015625,25.0781,47.593725Q25.5,47.171825,25.5,46.515625ZM19.5,39.015625L19.5,36.015625L19.5,39.015625L19.5,36.015625L10.5,36.015625L10.5,39.015625L19.5,39.015625Z" fill="#4B5563" fill-opacity="1" style="mix-blend-mode:passthrough"/></g></g></g></g></svg>