<svg xmlns="http://www.w3.org/2000/svg" xmlns:xlink="http://www.w3.org/1999/xlink" fill="none" version="1.1" width="24" height="32" viewBox="0 0 24 32"><defs><clipPath id="master_svg0_1_06319"><rect x="0" y="4" width="24" height="24" rx="0"/></clipPath></defs><g><rect x="0" y="0" width="24" height="32" rx="0" fill="#000000" fill-opacity="0" style="mix-blend-mode:passthrough"/><g clip-path="url(#master_svg0_1_06319)"><g transform="matrix(1,0,0,-1,0,57.03124237060547)"><g><path d="M23.3526,50.59372118530273Q24,51.390621185302734,23.3526,52.187521185302735Q22.5665,52.84372118530273,21.7803,52.187521185302735L17.711,48.062521185302735Q17.0636,47.265621185302734,17.711,46.46872118530273Q18.4971,45.812521185302735,19.2832,46.46872118530273L23.3526,50.59372118530273ZM14.1503,51.250021185302735Q13.5954,51.67182118530273,13.0867,51.250021185302735L12.578,50.687521185302735Q11.237,49.328121185302734,11.237,47.500021185302735Q11.237,45.71872118530273,12.578,44.359421185302736L13.0405,43.84372118530273L11.6069,42.437521185302735Q11.3757,44.40622118530273,9.94219,45.953121185302734L9.43353,46.46872118530273Q8.87861,46.890621185302734,8.36994,46.46872118530273L7.86127,45.953121185302734Q6.56647,44.54682118530273,6.56647,42.765621185302734Q6.56647,40.937521185302735,7.86127,39.578121185302734L8.3237,39.062521185302735L6.93642,37.65624118530273Q6.7052,39.625021185302735,5.22543,41.17182118530273L4.71676,41.687521185302735Q4.20809,42.109421185302736,3.65318,41.687521185302735L3.14451,41.17182118530273Q1.84971,39.765621185302734,1.84971,37.984371185302734Q1.84971,36.15624118530273,3.14451,34.796871185302734L3.60694,34.28124118530273L0.416185,31.093741185302733Q0,30.625001185302736,0,30.015621185302734Q0,29.406246185302734,0.416185,28.937496185302734Q0.878613,28.515621185302734,1.47977,28.515621185302734Q2.08092,28.515621185302734,2.54335,28.937496185302734L5.7341,32.171871185302734L6.28902,31.609371185302734Q7.63006,30.296871185302734,9.43353,30.296871185302734Q11.1908,30.296871185302734,12.578,31.609371185302734L13.0867,32.12499118530273Q13.5029,32.687501185302736,13.0867,33.203121185302734L12.578,33.71874118530273Q11.0058,35.265621185302734,8.9711,35.453121185302734L10.4046,36.953121185302734L11.0058,36.390621185302734Q12.3468,35.078121185302734,14.104,35.078121185302734Q15.9075,35.078121185302734,17.2486,36.390621185302734L17.8035,36.90624118530273Q18.2197,37.421871185302734,17.8035,37.984371185302734L17.2486,38.49999118530273Q15.6763,40.04682118530273,13.6416,40.234421185302736L15.1214,41.734421185302736L15.6763,41.17182118530273Q17.0636,39.812521185302735,18.8208,39.812521185302735Q20.6243,39.812521185302735,21.9653,41.17182118530273L22.5202,41.687521185302735Q22.9364,42.203121185302734,22.5202,42.765621185302734L21.9653,43.28122118530273Q21.5954,43.65622118530273,21.2254,43.937521185302735L23.3526,46.09372118530273Q24,46.890621185302734,23.3526,47.687521185302735Q22.5665,48.34372118530273,21.7803,47.687521185302735L19.052,44.875021185302735Q17.5723,45.203121185302734,16.1387,44.78122118530273Q16.6012,46.328121185302734,16.2312,47.875021185302735L18.9133,50.59372118530273Q19.5607,51.390621185302734,18.9133,52.187521185302735Q18.1272,52.84372118530273,17.341,52.187521185302735L15.2139,50.03122118530273Q14.9827,50.40622118530273,14.659,50.687521185302735L14.1503,51.250021185302735Z" fill="#4B5563" fill-opacity="1" style="mix-blend-mode:passthrough"/></g></g></g></g></svg>