<svg xmlns="http://www.w3.org/2000/svg" xmlns:xlink="http://www.w3.org/1999/xlink" fill="none" version="1.1" width="24" height="32" viewBox="0 0 24 32"><defs><clipPath id="master_svg0_1_06384"><rect x="0" y="4" width="24" height="24" rx="0"/></clipPath></defs><g><rect x="0" y="0" width="24" height="32" rx="0" fill="#000000" fill-opacity="0" style="mix-blend-mode:passthrough"/><g clip-path="url(#master_svg0_1_06384)"><g transform="matrix(1,0,0,-1,0,54.03125)"><g><path d="M2.25,35.453125L10.6875,27.53125L2.25,35.453125L10.6875,27.53125Q11.25,27.015625,12,27.015625Q12.75,27.015625,13.3125,27.53125L21.75,35.453125Q23.9531,37.515625,24,40.562525L24,40.843725Q23.9531,43.375025,22.4062,45.156225Q20.8594,46.984425,18.4219,47.453125Q16.7812,47.687525,15.2344,47.218725Q13.7344,46.750025,12.5625,45.578125L12,45.015625L11.4375,45.578125Q10.2656,46.750025,8.76562,47.218725Q7.21875,47.687525,5.57812,47.453125Q3.14062,46.984425,1.59375,45.156225Q0.046875,43.375025,0,40.843725L0,40.562525Q0.046875,37.515625,2.25,35.453125Z" fill="#4B5563" fill-opacity="1" style="mix-blend-mode:passthrough"/></g></g></g></g></svg>