<svg xmlns="http://www.w3.org/2000/svg" xmlns:xlink="http://www.w3.org/1999/xlink" fill="none" version="1.1" width="18" height="32" viewBox="0 0 18 32"><defs><clipPath id="master_svg0_1_06324"><rect x="0" y="4" width="18" height="24" rx="0"/></clipPath></defs><g><rect x="0" y="0" width="18" height="32" rx="0" fill="#000000" fill-opacity="0" style="mix-blend-mode:passthrough"/><g clip-path="url(#master_svg0_1_06324)"><g transform="matrix(1,0,0,-1,0,57.03126525878906)"><g><path d="M1.5388395035278797,52.51563262939453Q0.8859865035278797,52.51563262939453,0.46629750352787974,52.04683262939453Q-0.00002329647212028635,51.57813262939453,0.04660878352787971,50.92183262939453L1.3989395035278798,31.98438262939453Q1.5388395035278797,30.48438262939453,2.5647395035278797,29.50000762939453Q3.59064950352788,28.56250762939453,5.1295095035278795,28.51563262939453L12.870469503527879,28.51563262939453Q14.409269503527879,28.56250762939453,15.435169503527879,29.50000762939453Q16.46106950352788,30.48438262939453,16.600969503527878,31.98438262939453L17.95336950352788,50.92183262939453Q17.99996950352788,51.57813262939453,17.53366950352788,52.04683262939453Q17.11396950352788,52.51563262939453,16.46106950352788,52.51563262939453L1.5388395035278797,52.51563262939453ZM3.45074950352788,45.15623262939453L3.1243295035278797,49.51563262939453L3.45074950352788,45.15623262939453L3.1243295035278797,49.51563262939453L14.87566950352788,49.51563262939453L14.54916950352788,45.15623262939453L13.43006950352788,44.59373262939453Q11.98446950352788,43.93753262939453,10.538869503527879,44.59373262939453Q8.99997950352788,45.34373262939453,7.46111950352788,44.59373262939453Q6.01551950352788,43.93753262939453,4.5699195035278795,44.59373262939453L3.45074950352788,45.15623262939453Z" fill="#4B5563" fill-opacity="1" style="mix-blend-mode:passthrough"/></g></g></g></g></svg>