<svg xmlns="http://www.w3.org/2000/svg" xmlns:xlink="http://www.w3.org/1999/xlink" fill="none" version="1.1" width="24" height="32" viewBox="0 0 24 32"><defs><clipPath id="master_svg0_1_06374"><rect x="0" y="4" width="24" height="24" rx="0"/></clipPath></defs><g><rect x="0" y="0" width="24" height="32" rx="0" fill="#000000" fill-opacity="0" style="mix-blend-mode:passthrough"/><g clip-path="url(#master_svg0_1_06374)"><g transform="matrix(1,0,0,-1,0,57.03125)"><g><path d="M6,44.265625Q6,45.906225,6.79688,47.265625Q7.59375,48.625025,9,49.468725Q10.4062,50.265625,12,50.265625Q13.5938,50.265625,15,49.468725Q16.4062,48.625025,17.2031,47.265625Q18,45.906225,18,44.265625Q18,42.625025,17.2031,41.265625Q16.4062,39.906225,15,39.062525Q13.5938,38.265625,12,38.265625Q10.4062,38.265625,9,39.062525Q7.59375,39.906225,6.79688,41.265625Q6,42.625025,6,44.265625ZM18.375,49.515625Q17.2031,50.921825,15.5625,51.718725Q13.9219,52.515625,12,52.515625Q10.0781,52.515625,8.4375,51.718725Q6.79688,50.921825,5.625,49.515625L3,49.515625Q1.73438,49.468725,0.890625,48.625025Q0.046875,47.781225,0,46.515625L0,31.515625Q0.046875,30.250005,0.890625,29.40625Q1.73438,28.5625,3,28.515625L21,28.515625Q22.2656,28.5625,23.1094,29.40625Q23.9531,30.250005,24,31.515625L24,46.515625Q23.9531,47.781225,23.1094,48.625025Q22.2656,49.468725,21,49.515625L18.375,49.515625ZM13.875,42.015625Q13.875,42.765625,13.3594,43.281225L14.9531,46.984425Q15.1406,47.640625,14.5312,47.968725Q13.875,48.156225,13.5469,47.546825L12,43.890625Q11.2031,43.843725,10.6875,43.328125Q10.125,42.812525,10.125,42.015625Q10.125,41.218725,10.6875,40.703125Q11.2031,40.140625,12,40.140625Q12.7969,40.140625,13.3125,40.703125Q13.875,41.218725,13.875,42.015625Z" fill="#4B5563" fill-opacity="1" style="mix-blend-mode:passthrough"/></g></g></g></g></svg>