<svg xmlns="http://www.w3.org/2000/svg" xmlns:xlink="http://www.w3.org/1999/xlink" fill="none" version="1.1" width="26.25" height="36" viewBox="0 0 26.25 36"><defs><clipPath id="master_svg0_1_4708"><rect x="0" y="3" width="26.25" height="30" rx="0"/></clipPath></defs><g><rect x="0" y="0" width="26.25" height="36" rx="0" fill="#000000" fill-opacity="0" style="mix-blend-mode:passthrough"/><g clip-path="url(#master_svg0_1_4708)"><g transform="matrix(1,0,0,-1,0,67.2890625)"><g><path d="M24.375,63.64453125Q23.7891,63.70313125,22.0312,62.82423125Q20.2148,62.00393125,18.6328,59.77733125Q16.9922,57.49223125,16.875,53.33203125L16.875,46.76953125Q16.9336,45.18753125,17.9883,44.13283125Q19.043,43.07812125,20.625,43.01953125L22.5,43.01953125L22.5,35.51953125Q22.5,34.69922125,23.0273,34.17187525Q23.5547,33.64453125,24.375,33.64453125Q25.1953,33.64453125,25.7227,34.17187525Q26.25,34.69922125,26.25,35.51953125L26.25,43.01953125L26.25,49.58203125L26.25,61.76953125Q26.25,62.58983125,25.7227,63.11723125Q25.1953,63.64453125,24.375,63.64453125ZM3.75,62.70703125Q3.69141,63.468731250000005,2.92969,63.64453125Q2.10938,63.64453125,1.875,62.882831249999995L0.117188,54.91403125Q0,54.38673125,0,53.80073125Q0.0585938,51.75003125,1.34766,50.343731250000005Q2.69531,48.87893125,4.6875,48.64453125L4.6875,35.51953125Q4.6875,34.69922125,5.21484,34.17187525Q5.74219,33.64453125,6.5625,33.64453125Q7.38281,33.64453125,7.91016,34.17187525Q8.4375,34.69922125,8.4375,35.51953125L8.4375,48.64453125Q10.4297,48.87893125,11.7773,50.343731250000005Q13.0664,51.75003125,13.125,53.80073125Q13.125,54.38673125,13.0078,54.91403125L11.25,62.882831249999995Q11.0156,63.64453125,10.1953,63.64453125Q9.43359,63.468731250000005,9.375,62.70703125L9.375,54.855431249999995Q9.31641,54.32813125,8.78906,54.26953125Q8.32031,54.32813125,8.20312,54.79683125L7.5,62.76563125Q7.38281,63.58593125,6.5625,63.64453125Q5.74219,63.58593125,5.625,62.76563125L4.92188,54.79683125Q4.80469,54.32813125,4.33594,54.26953125Q3.80859,54.32813125,3.75,54.855431249999995L3.75,62.70703125ZM6.5625,53.80073125L6.5625,53.85933125L6.5625,53.80073125Z" fill="#000000" fill-opacity="1" style="mix-blend-mode:passthrough"/></g></g></g></g></svg>