<svg xmlns="http://www.w3.org/2000/svg" xmlns:xlink="http://www.w3.org/1999/xlink" fill="none" version="1.1" width="14" height="14" viewBox="0 0 14 14"><defs><clipPath id="master_svg0_1_06304"><rect x="0" y="0" width="14" height="14" rx="0"/></clipPath></defs><g clip-path="url(#master_svg0_1_06304)"><g transform="matrix(1,0,0,-1,0,28.6015625)"><g><path d="M11.375,22.61328125Q11.3477,20.69922125,10.2812,19.25000125L13.7539,15.80469125Q14,15.53125125,14,15.17578125Q14,14.82031225,13.7539,14.54687525Q13.4805,14.30078125,13.125,14.30078125Q12.7695,14.30078125,12.4961,14.54687525L9.05078,18.01953125Q7.60156,16.95312125,5.6875,16.92578125Q3.28125,16.98047125,1.66797,18.59375125Q0.0546875,20.20703125,0,22.61328125Q0.0546875,25.01958125,1.66797,26.63278125Q3.28125,28.24608125,5.6875,28.30078125Q8.09375,28.24608125,9.70703,26.63278125Q11.3203,25.01958125,11.375,22.61328125ZM5.6875,18.67578125Q6.75391,18.67578125,7.65625,19.19531125Q8.55859,19.71484125,9.10547,20.64453125Q9.625,21.57422125,9.625,22.61328125Q9.625,23.65234125,9.10547,24.58198125Q8.55859,25.511681250000002,7.65625,26.03128125Q6.75391,26.55078125,5.6875,26.55078125Q4.62109,26.55078125,3.71875,26.03128125Q2.81641,25.511681250000002,2.26953,24.58198125Q1.75,23.65234125,1.75,22.61328125Q1.75,21.57422125,2.26953,20.64453125Q2.81641,19.71484125,3.71875,19.19531125Q4.62109,18.67578125,5.6875,18.67578125Z" fill="#9CA3AF" fill-opacity="1" style="mix-blend-mode:passthrough"/></g></g></g></svg>