<svg xmlns="http://www.w3.org/2000/svg" xmlns:xlink="http://www.w3.org/1999/xlink" fill="none" version="1.1" width="27" height="32" viewBox="0 0 27 32"><defs><clipPath id="master_svg0_1_06334"><rect x="0" y="4" width="27" height="24" rx="0"/></clipPath></defs><g><rect x="0" y="0" width="27" height="32" rx="0" fill="#000000" fill-opacity="0" style="mix-blend-mode:passthrough"/><g clip-path="url(#master_svg0_1_06334)"><g transform="matrix(1,0,0,-1,0,49.53123092651367)"><g><path d="M8.615957306709289,38.35941546325684Q9.95213730670929,39.578115463256836,11.74906730670929,40.42191546325684Q13.54596730670929,41.218715463256835,15.757567306709289,41.265615463256836Q17.969167306709288,41.218715463256835,19.76616730670929,40.42191546325684Q21.56306730670929,39.578115463256836,22.94526730670929,38.35941546325684Q24.28146730670929,37.18751546325684,25.20296730670929,35.92191546325684Q26.17056730670929,34.703115463256836,26.67736730670929,33.71874546325684Q26.99996730670929,33.015615463256836,26.67736730670929,32.31249546325684Q26.17056730670929,31.328115463256836,25.20296730670929,30.109365463256836Q24.28146730670929,28.843745463256838,22.94526730670929,27.671865463256836Q21.56306730670929,26.453115463256836,19.76616730670929,25.609365463256836Q17.969167306709288,24.812490463256836,15.757567306709289,24.765615463256836Q13.54596730670929,24.812490463256836,11.74906730670929,25.609365463256836Q9.95213730670929,26.453115463256836,8.615957306709289,27.624995463256838Q7.46407730670929,28.609365463256836,6.63472730670929,29.687495463256838L2.4879673067092893,27.203115463256836Q1.5203973067092895,26.734365463256836,0.6910433067092896,27.437495463256838Q-0.0000836932907104515,28.281235463256834,0.46066730670928957,29.265615463256836L2.5801173067092895,33.015615463256836L0.46066730670928957,36.765615463256836Q-0.0000836932907104515,37.75001546325684,0.7371183067092896,38.593715463256835Q1.5203973067092895,39.29691546325684,2.4879673067092893,38.828115463256836L6.63472730670929,36.343715463256835Q7.46407730670929,37.421815463256834,8.615957306709289,38.35941546325684ZM20.91796730670929,33.015615463256836Q20.91796730670929,33.671865463256836,20.50336730670929,34.09374546325684Q20.08866730670929,34.515615463256836,19.44356730670929,34.515615463256836Q18.79856730670929,34.515615463256836,18.38386730670929,34.09374546325684Q17.969167306709288,33.671865463256836,17.969167306709288,33.015615463256836Q17.969167306709288,32.359365463256836,18.38386730670929,31.937495463256838Q18.79856730670929,31.515615463256836,19.44356730670929,31.515615463256836Q20.08866730670929,31.515615463256836,20.50336730670929,31.937495463256838Q20.91796730670929,32.359365463256836,20.91796730670929,33.015615463256836Z" fill="#4B5563" fill-opacity="1" style="mix-blend-mode:passthrough"/></g></g></g></g></svg>