<svg xmlns="http://www.w3.org/2000/svg" xmlns:xlink="http://www.w3.org/1999/xlink" fill="none" version="1.1" width="37.5" height="36" viewBox="0 0 37.5 36"><defs><clipPath id="master_svg0_1_4723"><rect x="0" y="3" width="37.5" height="30" rx="0"/></clipPath></defs><g><rect x="0" y="0" width="37.5" height="36" rx="0" fill="#000000" fill-opacity="0" style="mix-blend-mode:passthrough"/><g clip-path="url(#master_svg0_1_4723)"><g transform="matrix(1,0,0,-1,0,67.2890625)"><g><path d="M5.625,56.14453125Q5.625,58.195331249999995,6.62109,59.89453125Q7.61719,61.593731250000005,9.375,62.64843125Q11.1328,63.64453125,13.125,63.64453125Q15.1172,63.64453125,16.875,62.64843125Q18.6328,61.593731250000005,19.6289,59.89453125Q20.625,58.195331249999995,20.625,56.14453125Q20.625,54.093731250000005,19.6289,52.39453125Q18.6328,50.695331249999995,16.875,49.64063125Q15.1172,48.64453125,13.125,48.64453125Q11.1328,48.64453125,9.375,49.64063125Q7.61719,50.695331249999995,6.62109,52.39453125Q5.625,54.093731250000005,5.625,56.14453125ZM0,35.40234125Q0.117188,39.79687125,3.04688,42.78515125Q6.03516,45.71483125,10.4297,45.83203125L15.8203,45.83203125Q20.2148,45.71483125,23.2031,42.78515125Q26.1328,39.79687125,26.25,35.40234125Q26.25,34.64062525,25.7227,34.17187525Q25.2539,33.64453125,24.4922,33.64453125L1.75781,33.64453125Q0.996094,33.64453125,0.527344,34.17187525Q0,34.64062525,0,35.40234125ZM35.6836,33.64453125L27.6562,33.64453125L35.6836,33.64453125L27.6562,33.64453125Q28.125,34.46484325,28.125,35.51953125L28.125,35.98828125Q28.125,38.68359125,27.0117,40.96875125Q25.957,43.25391125,24.0234,44.89453125L24.082,44.89453125Q24.2578,44.89453125,24.4336,44.89453125L28.0664,44.89453125Q32.0508,44.77733125,34.7461,42.14062125Q37.3828,39.44531125,37.5,35.46094125Q37.5,34.69922125,36.9727,34.17187525Q36.4453,33.64453125,35.6836,33.64453125ZM25.3125,48.64453125Q22.5,48.70313125,20.6836,50.57813125Q22.4414,52.980431249999995,22.5,56.14453125Q22.5,58.54683125,21.4453,60.480431249999995Q23.0859,61.71093125,25.3125,61.76953125Q28.125,61.71093125,29.9414,59.83593125Q31.8164,58.01953125,31.875,55.20703125Q31.8164,52.39453125,29.9414,50.57813125Q28.125,48.70313125,25.3125,48.64453125Z" fill="#000000" fill-opacity="1" style="mix-blend-mode:passthrough"/></g></g></g></g></svg>