<svg xmlns="http://www.w3.org/2000/svg" xmlns:xlink="http://www.w3.org/1999/xlink" fill="none" version="1.1" width="24" height="32" viewBox="0 0 24 32"><defs><clipPath id="master_svg0_1_06329"><rect x="0" y="4" width="24" height="24" rx="0"/></clipPath></defs><g><rect x="0" y="0" width="24" height="32" rx="0" fill="#000000" fill-opacity="0" style="mix-blend-mode:passthrough"/><g clip-path="url(#master_svg0_1_06329)"><g transform="matrix(1,0,0,-1,0,57.03125)"><g><path d="M24,51.015625Q23.9062,46.937525,21.375,44.078125Q18.8438,41.218725,14.9062,40.609425Q14.3438,44.406225,11.8125,47.125025Q13.2188,49.562525,15.6094,51.015625Q18,52.468725,21,52.515625L22.5,52.515625Q23.1562,52.515625,23.5781,52.093725Q24,51.671825,24,51.015625ZM0,48.015625Q0,48.671825,0.421875,49.093725Q0.84375,49.515625,1.5,49.515625L3,49.515625Q5.95312,49.468725,8.29688,48.062525Q10.6875,46.703125,12.0469,44.312525Q13.4531,41.968725,13.5,39.015625L13.5,37.515625L13.5,30.015625Q13.5,29.359375,13.0781,28.9375Q12.6562,28.515625,12,28.515625Q11.3438,28.515625,10.9219,28.9375Q10.5,29.359375,10.5,30.015625L10.5,37.515625Q7.54688,37.562505,5.20312,38.968725Q2.8125,40.328125,1.45312,42.718725Q0.046875,45.062525,0,48.015625Z" fill="#4B5563" fill-opacity="1" style="mix-blend-mode:passthrough"/></g></g></g></g></svg>